<svg height="64" viewBox="0 0 128 128" width="64" xmlns="http://www.w3.org/2000/svg" xmlns:xlink="http://www.w3.org/1999/xlink"><linearGradient id="a" gradientUnits="userSpaceOnUse" x1="0" x2="128" y1="128" y2="0"><stop offset="0" stop-color="#333"/><stop offset="1" stop-color="#5d5d5d"/></linearGradient><path d="m29.09375 11.234375c-3.183804 0-5.71875 2.566196-5.71875 5.75v94.031255c0 3.1838 2.534946 5.75 5.71875 5.75h69.8125c3.1838 0 5.71875-2.5662 5.71875-5.75v-70.656255h-21.03125c-4.306108 0-8.0625-3.141109-8.0625-7.3125v-21.8125zm50.4375 0v21.8125c0 1.714122 1.631968 3.3125 4.0625 3.3125h21.03125zm-32.25 39.6875c2.081981.000022 3.702035.733031 4.875 2.21875 1.397754 1.759447 2.093735 4.705254 2.09375 8.78125-.000015 4.066243-.686221 6.971025-2.09375 8.75-1.163191 1.466191-2.793019 2.187499-4.875 2.1875-2.091772-.000001-3.782031-.771964-5.0625-2.375-1.280476-1.612806-1.937502-4.50011-1.9375-8.625-.000002-4.046673.717454-6.971004 2.125-8.75 1.163173-1.466171 2.793003-2.187478 4.875-2.1875zm16.9375 0h3.34375v21.59375h-4.125v-15.53125c-1.505296 1.407558-3.269611 2.450565-5.3125 3.125v-3.75c1.075204-.351869 2.239071-1.022522 3.5-2 1.260917-.987216 2.124561-2.127682 2.59375-3.4375zm16.5 0c2.081981.000022 3.702035.733031 4.875 2.21875 1.397754 1.759447 2.093735 4.705254 2.09375 8.78125-.000015 4.066243-.717471 6.971025-2.125 8.75-1.16319 1.466191-2.761769 2.187499-4.84375 2.1875-2.091772-.000001-3.782031-.771964-5.0625-2.375-1.280475-1.612806-1.937501-4.50011-1.9375-8.625-.000001-4.046673.717455-6.971004 2.125-8.75 1.163174-1.466171 2.793003-2.187478 4.875-2.1875zm-33.4375 3.40625c-.498513.000018-.952773.177456-1.34375.5-.390991.312805-.691215.86645-.90625 1.6875-.28347 1.065447-.437505 2.884415-.4375 5.40625-.000005 2.521857.152105 4.239369.40625 5.1875.254134.938366.556284 1.562217.9375 1.875.390977.312791.845237.468753 1.34375.46875.498496.000003.921507-.155959 1.3125-.46875.390974-.322558.722448-.897679.9375-1.71875.283452-1.055652.406239-2.821893.40625-5.34375-.000011-2.521835-.120871-4.280373-.375-5.21875-.25415-.94812-.577775-1.562195-.96875-1.875-.381219-.322544-.814004-.499982-1.3125-.5zm33.4375 0c-.498512.000018-.952773.177456-1.34375.5-.390991.312805-.691215.86645-.90625 1.6875-.283469 1.065447-.437506 2.884415-.4375 5.40625-.000006 2.521857.120855 4.239369.375 5.1875.254134.938366.587533 1.562217.96875 1.875.390977.312791.845238.468753 1.34375.46875.498497.000003.921507-.155959 1.3125-.46875.390975-.322558.691198-.897679.90625-1.71875.283453-1.055652.437489-2.821893.4375-5.34375-.000011-2.521835-.120871-4.280373-.375-5.21875-.254151-.94812-.577775-1.562195-.96875-1.875-.381218-.322544-.814003-.499982-1.3125-.5zm-33.21875 26.625h3.34375v21.593755h-4.125v-15.531255c-1.505295 1.407557-3.269612 2.450565-5.3125 3.125v-3.75c1.075203-.35187 2.239071-1.022522 3.5-2 1.260917-.987217 2.124561-2.127683 2.59375-3.4375zm16.5 0c2.081981.000021 3.702035.733031 4.875 2.21875 1.397754 1.759447 2.093735 4.674003 2.09375 8.75-.000015 4.066243-.717471 7.002273-2.125 8.781255-1.16319 1.46618-2.761769 2.1875-4.84375 2.1875-2.091772 0-3.782031-.80322-5.0625-2.40625-1.280476-1.612811-1.937501-4.468864-1.9375-8.593755-.000001-4.046673.717455-6.971004 2.125-8.75 1.163174-1.46617 2.793002-2.187479 4.875-2.1875zm16.9375 0h3.34375v21.593755h-4.125v-15.531255c-1.505296 1.407557-3.269611 2.450565-5.3125 3.125v-3.75c1.075203-.35187 2.239071-1.022522 3.5-2 1.260917-.987217 2.124561-2.127683 2.59375-3.4375zm-16.9375 3.40625c-.498513.000018-.952773.177456-1.34375.5-.390991.312805-.691214.866449-.90625 1.6875-.283469 1.065447-.437506 2.853164-.4375 5.375-.000006 2.521857.120854 4.27062.375 5.21875.254133.938367.587534 1.562216.96875 1.875.390977.31279.845237.46875 1.34375.46875.498496 0 .921506-.15596 1.3125-.46875.390974-.322558.691199-.897678.90625-1.71875.283453-1.055651.437489-2.853143.4375-5.375-.000011-2.521836-.120871-4.249122-.375-5.1875-.25415-.94812-.577776-1.562195-.96875-1.875-.381219-.322544-.814004-.499982-1.3125-.5z" fill="url(#a)"/></svg>